<?xml version="1.0" encoding="UTF-8"?>
<svg width="512" height="512" viewBox="0 0 512 512" xmlns="http://www.w3.org/2000/svg">
  <!-- Background Circle -->
  <circle cx="256" cy="256" r="240" fill="#1a1a2e" stroke="#00ff88" stroke-width="8"/>
  
  <!-- Inner Circle -->
  <circle cx="256" cy="256" r="200" fill="#16213e" stroke="#00ff88" stroke-width="4" opacity="0.3"/>
  
  <!-- Shield Base -->
  <path d="M256 80 L180 120 L180 280 Q180 360 256 400 Q332 360 332 280 L332 120 Z" 
        fill="#00ff88" opacity="0.9"/>
  
  <!-- Shield Inner -->
  <path d="M256 100 L200 130 L200 280 Q200 340 256 370 Q312 340 312 280 L312 130 Z" 
        fill="#ffffff" opacity="0.1"/>
  
  <!-- Fish Hook -->
  <path d="M256 200 Q280 200 280 220 Q280 240 260 240 Q240 240 240 220 Q240 200 256 200 Z" 
        fill="#ff4444" stroke="#ffffff" stroke-width="3"/>
  
  <!-- Hook Line -->
  <line x1="256" y1="200" x2="256" y2="160" stroke="#ff4444" stroke-width="4" stroke-linecap="round"/>
  
  <!-- Hook Point -->
  <circle cx="240" cy="220" r="6" fill="#ff4444"/>
  
  <!-- Security Lines -->
  <line x1="200" y1="150" x2="312" y2="150" stroke="#00ff88" stroke-width="2" opacity="0.6"/>
  <line x1="200" y1="170" x2="312" y2="170" stroke="#00ff88" stroke-width="2" opacity="0.6"/>
  <line x1="200" y1="190" x2="312" y2="190" stroke="#00ff88" stroke-width="2" opacity="0.6"/>
  
  <!-- App Name -->
  <text x="256" y="450" text-anchor="middle" font-family="Arial, sans-serif" font-size="32" font-weight="bold" fill="#00ff88">
    PhishTi
  </text>
  <text x="256" y="480" text-anchor="middle" font-family="Arial, sans-serif" font-size="18" font-weight="normal" fill="#ffffff" opacity="0.8">
    DETECTOR
  </text>
  
  <!-- Decorative Elements -->
  <circle cx="150" cy="150" r="3" fill="#00ff88" opacity="0.4"/>
  <circle cx="362" cy="150" r="3" fill="#00ff88" opacity="0.4"/>
  <circle cx="150" cy="362" r="3" fill="#00ff88" opacity="0.4"/>
  <circle cx="362" cy="362" r="3" fill="#00ff88" opacity="0.4"/>
</svg>
